<svg width="800" height="150" viewBox="0 0 800 150" fill="none" xmlns="http://www.w3.org/2000/svg">
<g clip-path="url(#clip0_1275_40364)">
<g style="mix-blend-mode:screen">
<path d="M800 252H0V-148H800V252Z" fill="white"/>
</g>
<path d="M800 199.389L704.069 93.7627L800 139.939V199.389Z" fill="url(#paint0_linear_1275_40364)"/>
<path d="M670.917 252L593.12 69.1787L704.069 93.7627L672.813 252H670.917Z" fill="url(#paint1_linear_1275_40364)"/>
<path d="M800 252H672.813L704.069 93.7627L800 199.389V252Z" fill="url(#paint2_linear_1275_40364)"/>
<path d="M442.181 252L386.219 165.011L593.12 69.1787L495.963 252H442.181Z" fill="url(#paint3_linear_1275_40364)"/>
<path d="M495.963 252L593.12 69.1787L670.918 252H495.963Z" fill="url(#paint4_linear_1275_40364)"/>
<path d="M363.851 252L328.48 95.2667L386.219 165.011L374.768 252H363.851Z" fill="url(#paint5_linear_1275_40364)"/>
<path d="M153.109 207.445L328.48 95.2693L97.8906 97.6693L153.109 207.445Z" fill="url(#paint6_linear_1275_40364)"/>
<path d="M282.195 252L153.109 207.445L328.48 95.2667L363.851 252H282.195Z" fill="url(#paint7_linear_1275_40364)"/>
<path d="M0 165.429L97.8907 97.6774L44.1893 238.355V238.357L0 190.835V165.429Z" fill="url(#paint8_linear_1275_40364)"/>
<path d="M44.1895 238.355L97.8908 97.6774L153.109 207.445L44.1895 238.357V238.355Z" fill="url(#paint9_linear_1275_40364)"/>
<path d="M800 2.56002L704.069 93.7627L662.584 25.3014L800 -13.4613V2.56002Z" fill="url(#paint10_linear_1275_40364)"/>
<path d="M800 139.939L704.069 93.7627L800 2.56005V139.939Z" fill="url(#paint11_linear_1275_40364)"/>
<path d="M593.117 69.1787L662.584 25.3014L498.293 -48.2986L593.117 69.1681V69.1787Z" fill="url(#paint12_linear_1275_40364)"/>
<path d="M593.117 69.1787L662.584 25.3014L704.069 93.76L593.117 69.1787V69.1787Z" fill="url(#paint13_linear_1275_40364)"/>
<path d="M386.216 165.011L498.293 -48.2879L305.296 33.3681L386.216 165.011Z" fill="url(#paint14_linear_1275_40364)"/>
<path d="M386.216 165.011L498.293 -48.2879L593.117 69.1787L386.216 165.011Z" fill="url(#paint15_linear_1275_40364)"/>
<path d="M328.48 95.2693L305.296 33.368L224.12 39.7333L328.48 95.2693Z" fill="url(#paint16_linear_1275_40364)"/>
<path d="M328.48 95.2694L305.296 33.3681L386.216 165.011L328.48 95.2694Z" fill="url(#paint17_linear_1275_40364)"/>
<path d="M97.8936 97.6746L224.12 39.7333L80.2803 -7.38673L97.8803 97.6799L97.8936 97.6746Z" fill="url(#paint18_linear_1275_40364)"/>
<path d="M97.8933 97.6746L224.12 39.7332L328.48 95.2692L97.8906 97.6692L97.8933 97.6746Z" fill="url(#paint19_linear_1275_40364)"/>
<path d="M0 147.621V-15.168L80.28 -7.38933L0 147.621Z" fill="url(#paint20_linear_1275_40364)"/>
<path d="M0 165.429V147.621L80.28 -7.38921L97.8907 97.6774L0 165.429Z" fill="url(#paint21_linear_1275_40364)"/>
<path d="M694.608 -148L662.584 25.3013L583.763 -111.333L637.083 -148H694.608Z" fill="url(#paint22_linear_1275_40364)"/>
<path d="M734.648 -148L800 -54.5227V-13.4614L662.584 25.3013L694.608 -148H734.648Z" fill="url(#paint23_linear_1275_40364)"/>
<path d="M498.293 -48.2881L583.762 -111.333L662.584 25.3013L498.293 -48.2987V-48.2881Z" fill="url(#paint24_linear_1275_40364)"/>
<path d="M350.229 -148L388.549 -97.2772L305.296 33.3601L324.512 -148H350.229Z" fill="url(#paint25_linear_1275_40364)"/>
<path d="M305.293 33.3679L388.546 -97.2774L498.293 -48.2881L305.296 33.3679H305.293Z" fill="url(#paint26_linear_1275_40364)"/>
<path d="M313.469 -148L224.125 39.7546L224.123 39.7466L119.229 -148H313.469Z" fill="url(#paint27_linear_1275_40364)"/>
<path d="M324.512 -148L305.296 33.3679L224.125 39.7466L313.469 -148H324.512Z" fill="url(#paint28_linear_1275_40364)"/>
<path d="M119.23 -148L224.123 39.7466L80.2803 -7.38942L96.3203 -148H119.23Z" fill="url(#paint29_linear_1275_40364)"/>
<g style="mix-blend-mode:overlay">
<path d="M473.301 185.629L543.288 114.4L352.304 12.5547L473.301 185.621V185.629Z" fill="url(#paint30_linear_1275_40364)"/>
<path d="M311.906 231.163L352.304 12.5546L233.085 94.5226L311.906 231.16V231.163Z" fill="url(#paint31_linear_1275_40364)"/>
<path d="M311.906 231.163L352.304 12.5546L473.301 185.621L311.906 231.16V231.163Z" fill="url(#paint32_linear_1275_40364)"/>
<path d="M147.616 157.573L233.085 94.5226L37.8662 108.581L147.616 157.573Z" fill="url(#paint33_linear_1275_40364)"/>
<path d="M147.616 157.573L233.086 94.5226L311.907 231.16L147.616 157.56V157.573Z" fill="url(#paint34_linear_1275_40364)"/>
<path d="M0 168.013V58.4534L37.872 108.581L0 168.013Z" fill="url(#paint35_linear_1275_40364)"/>
<path d="M0 220.024V168.013L37.872 108.581L147.619 157.573L0 220.024Z" fill="url(#paint36_linear_1275_40364)"/>
<path d="M352.304 12.5547L471.075 -119.309L331.262 -28.1626L352.304 12.5547V12.5547Z" fill="url(#paint37_linear_1275_40364)"/>
<path d="M352.304 12.5546L471.074 -119.309L543.288 114.4L352.304 12.5546Z" fill="url(#paint38_linear_1275_40364)"/>
<path d="M233.083 94.5254L331.262 -28.1626L175.55 -50.9626L233.086 94.5227L233.083 94.5254Z" fill="url(#paint39_linear_1275_40364)"/>
<path d="M233.083 94.5254L331.262 -28.1626L352.304 12.5547L233.086 94.5227L233.083 94.5254Z" fill="url(#paint40_linear_1275_40364)"/>
<path d="M0 -105.552L175.549 -50.9627L37.872 108.581L0 -63.5734V-105.552Z" fill="url(#paint41_linear_1275_40364)"/>
<path d="M37.8662 108.581L175.544 -50.9627L233.085 94.5226L37.8662 108.581Z" fill="url(#paint42_linear_1275_40364)"/>
<path d="M0 58.4533V-63.5734L37.872 108.581L0 58.4533Z" fill="url(#paint43_linear_1275_40364)"/>
</g>
<rect y="-73" width="800" height="267" fill="url(#paint44_linear_1275_40364)" fill-opacity="0.9"/>
</g>
<defs>
<linearGradient id="paint0_linear_1275_40364" x1="768.811" y1="307.285" x2="758.32" y2="188.197" gradientUnits="userSpaceOnUse">
<stop stop-color="#874912"/>
<stop offset="1" stop-color="#C68851"/>
</linearGradient>
<linearGradient id="paint1_linear_1275_40364" x1="687.355" y1="172.664" x2="575.845" y2="148.331" gradientUnits="userSpaceOnUse">
<stop stop-color="#AE5922"/>
<stop offset="1" stop-color="#FEA972"/>
</linearGradient>
<linearGradient id="paint2_linear_1275_40364" x1="656.192" y1="137.907" x2="842.341" y2="339.787" gradientUnits="userSpaceOnUse">
<stop stop-color="#8E4914"/>
<stop offset="1" stop-color="#C9844F"/>
</linearGradient>
<linearGradient id="paint3_linear_1275_40364" x1="619.269" y1="126.496" x2="411.824" y2="221.139" gradientUnits="userSpaceOnUse">
<stop stop-color="#DA9566"/>
<stop offset="1" stop-color="#FFC4A6"/>
</linearGradient>
<linearGradient id="paint4_linear_1275_40364" x1="538.528" y1="333.877" x2="661.446" y2="106.043" gradientUnits="userSpaceOnUse">
<stop stop-color="#B25F2A"/>
<stop offset="1" stop-color="#EA9762"/>
</linearGradient>
<linearGradient id="paint5_linear_1275_40364" x1="348.062" y1="90.7813" x2="390.934" y2="277.896" gradientUnits="userSpaceOnUse">
<stop stop-color="#E29464"/>
<stop offset="1" stop-color="#F1A373"/>
</linearGradient>
<linearGradient id="paint6_linear_1275_40364" x1="329.048" y1="150.451" x2="98.4586" y2="152.821" gradientUnits="userSpaceOnUse">
<stop stop-color="#ECA87E"/>
<stop offset="1" stop-color="#FFD3C5"/>
</linearGradient>
<linearGradient id="paint7_linear_1275_40364" x1="232.957" y1="117.152" x2="275.837" y2="304.307" gradientUnits="userSpaceOnUse">
<stop stop-color="#E69968"/>
<stop offset="1" stop-color="#FFBFA5"/>
</linearGradient>
<linearGradient id="paint8_linear_1275_40364" x1="122.109" y1="133.203" x2="9.17599" y2="210.189" gradientUnits="userSpaceOnUse">
<stop stop-color="#CF8754"/>
<stop offset="1" stop-color="#FCB481"/>
</linearGradient>
<linearGradient id="paint9_linear_1275_40364" x1="48.1041" y1="123.104" x2="103.987" y2="232.531" gradientUnits="userSpaceOnUse">
<stop stop-color="#DE9765"/>
<stop offset="1" stop-color="#E69F6D"/>
</linearGradient>
<linearGradient id="paint10_linear_1275_40364" x1="720.845" y1="-10.544" x2="762.792" y2="57.632" gradientUnits="userSpaceOnUse">
<stop stop-color="#D1702F"/>
<stop offset="1" stop-color="#D67534"/>
</linearGradient>
<linearGradient id="paint11_linear_1275_40364" x1="739.579" y1="3.31205" x2="794.507" y2="201.067" gradientUnits="userSpaceOnUse">
<stop stop-color="#BF6322"/>
<stop offset="1" stop-color="#FFAB76"/>
</linearGradient>
<linearGradient id="paint12_linear_1275_40364" x1="554.242" y1="5.13605" x2="623.306" y2="-37.832" gradientUnits="userSpaceOnUse">
<stop stop-color="#E18850"/>
<stop offset="1" stop-color="#FFA66F"/>
</linearGradient>
<linearGradient id="paint13_linear_1275_40364" x1="710.256" y1="65.408" x2="599.229" y2="41.1787" gradientUnits="userSpaceOnUse">
<stop stop-color="#CB6B2D"/>
<stop offset="1" stop-color="#D27234"/>
</linearGradient>
<linearGradient id="paint14_linear_1275_40364" x1="527.869" y1="22.6854" x2="334.435" y2="103.293" gradientUnits="userSpaceOnUse">
<stop stop-color="#F0BA9C"/>
<stop offset="1" stop-color="#FFD6C9"/>
</linearGradient>
<linearGradient id="paint15_linear_1275_40364" x1="412.485" y1="22.0401" x2="508.176" y2="138.795" gradientUnits="userSpaceOnUse">
<stop stop-color="#EBA074"/>
<stop offset="1" stop-color="#FFB488"/>
</linearGradient>
<linearGradient id="paint16_linear_1275_40364" x1="307.688" y1="65.0293" x2="226.571" y2="71.3173" gradientUnits="userSpaceOnUse">
<stop stop-color="#F7BE9E"/>
<stop offset="1" stop-color="#FFCBB3"/>
</linearGradient>
<linearGradient id="paint17_linear_1275_40364" x1="299.739" y1="36.8374" x2="381.547" y2="167.925" gradientUnits="userSpaceOnUse">
<stop stop-color="#F1B696"/>
<stop offset="1" stop-color="#FFECE6"/>
</linearGradient>
<linearGradient id="paint18_linear_1275_40364" x1="209.803" y1="84.1093" x2="65.7549" y2="37.6133" gradientUnits="userSpaceOnUse">
<stop stop-color="#EFA67C"/>
<stop offset="1" stop-color="#FFD6CA"/>
</linearGradient>
<linearGradient id="paint19_linear_1275_40364" x1="198.971" y1="88.6052" x2="303.32" y2="143.283" gradientUnits="userSpaceOnUse">
<stop stop-color="#F5AF87"/>
<stop offset="1" stop-color="#FFDDD3"/>
</linearGradient>
<linearGradient id="paint20_linear_1275_40364" x1="72.592" y1="73.1547" x2="-131.904" y2="53.6373" gradientUnits="userSpaceOnUse">
<stop stop-color="#9D5C34"/>
<stop offset="1" stop-color="#A5643C"/>
</linearGradient>
<linearGradient id="paint21_linear_1275_40364" x1="26.976" y1="1.68545" x2="44.8827" y2="106.885" gradientUnits="userSpaceOnUse">
<stop stop-color="#E1996A"/>
<stop offset="1" stop-color="#E29A6B"/>
</linearGradient>
<linearGradient id="paint22_linear_1275_40364" x1="747.536" y1="-127.515" x2="626.891" y2="-45.8107" gradientUnits="userSpaceOnUse">
<stop stop-color="#BC5B1C"/>
<stop offset="1" stop-color="#F39253"/>
</linearGradient>
<linearGradient id="paint23_linear_1275_40364" x1="725.208" y1="37.0506" x2="766.176" y2="-181.315" gradientUnits="userSpaceOnUse">
<stop stop-color="#B25213"/>
<stop offset="1" stop-color="#D57536"/>
</linearGradient>
<linearGradient id="paint24_linear_1275_40364" x1="538.197" y1="-84.6454" x2="617.914" y2="51.4639" gradientUnits="userSpaceOnUse">
<stop stop-color="#D4753A"/>
<stop offset="1" stop-color="#E8894E"/>
</linearGradient>
<linearGradient id="paint25_linear_1275_40364" x1="331.408" y1="-52.5652" x2="269.523" y2="-133.248" gradientUnits="userSpaceOnUse">
<stop stop-color="#F7AD83"/>
<stop offset="1" stop-color="#FFBB9A"/>
</linearGradient>
<linearGradient id="paint26_linear_1275_40364" x1="354.25" y1="65.0426" x2="438.002" y2="-64.4081" gradientUnits="userSpaceOnUse">
<stop stop-color="#F3AA83"/>
<stop offset="1" stop-color="#FFD8CC"/>
</linearGradient>
<linearGradient id="paint27_linear_1275_40364" x1="325.419" y1="-53.096" x2="97.9495" y2="-57.224" gradientUnits="userSpaceOnUse">
<stop stop-color="#EA986C"/>
<stop offset="1" stop-color="#FFBBA6"/>
</linearGradient>
<linearGradient id="paint28_linear_1275_40364" x1="288.229" y1="-182.075" x2="265.528" y2="28.9626" gradientUnits="userSpaceOnUse">
<stop stop-color="#F8C1A2"/>
<stop offset="1" stop-color="#F9C2A3"/>
</linearGradient>
<linearGradient id="paint29_linear_1275_40364" x1="55.1549" y1="-156.323" x2="180.43" y2="64.5306" gradientUnits="userSpaceOnUse">
<stop stop-color="#F4AF85"/>
<stop offset="1" stop-color="#FFC6AF"/>
</linearGradient>
<linearGradient id="paint30_linear_1275_40364" x1="521.373" y1="156.123" x2="329.76" y2="55.4694" gradientUnits="userSpaceOnUse">
<stop stop-color="#8F470F"/>
<stop offset="1" stop-color="#B76F37"/>
</linearGradient>
<linearGradient id="paint31_linear_1275_40364" x1="396.701" y1="78.1119" x2="276.056" y2="159.816" gradientUnits="userSpaceOnUse">
<stop stop-color="#BC5B1C"/>
<stop offset="1" stop-color="#F39253"/>
</linearGradient>
<linearGradient id="paint32_linear_1275_40364" x1="385.434" y1="244.957" x2="426.429" y2="26.4613" gradientUnits="userSpaceOnUse">
<stop stop-color="#B25213"/>
<stop offset="1" stop-color="#D57536"/>
</linearGradient>
<linearGradient id="paint33_linear_1275_40364" x1="117.394" y1="115.165" x2="202.928" y2="53.0186" gradientUnits="userSpaceOnUse">
<stop stop-color="#E9925F"/>
<stop offset="1" stop-color="#FFAF88"/>
</linearGradient>
<linearGradient id="paint34_linear_1275_40364" x1="187.52" y1="121.211" x2="267.238" y2="257.323" gradientUnits="userSpaceOnUse">
<stop stop-color="#D4753A"/>
<stop offset="1" stop-color="#E8894E"/>
</linearGradient>
<linearGradient id="paint35_linear_1275_40364" x1="11.9973" y1="128.872" x2="-49.8027" y2="48.2988" gradientUnits="userSpaceOnUse">
<stop stop-color="#F7AD83"/>
<stop offset="1" stop-color="#FFBB9A"/>
</linearGradient>
<linearGradient id="paint36_linear_1275_40364" x1="3.57867" y1="270.899" x2="87.328" y2="141.451" gradientUnits="userSpaceOnUse">
<stop stop-color="#F3AA83"/>
<stop offset="1" stop-color="#FFD8CC"/>
</linearGradient>
<linearGradient id="paint37_linear_1275_40364" x1="483.712" y1="-99.624" x2="343.019" y2="-9.28266" gradientUnits="userSpaceOnUse">
<stop stop-color="#8D430E"/>
<stop offset="1" stop-color="#EDA36E"/>
</linearGradient>
<linearGradient id="paint38_linear_1275_40364" x1="398.181" y1="-96.4428" x2="471.394" y2="136.955" gradientUnits="userSpaceOnUse">
<stop stop-color="#894611"/>
<stop offset="1" stop-color="#DD9A65"/>
</linearGradient>
<linearGradient id="paint39_linear_1275_40364" x1="321.616" y1="38.7014" x2="165.856" y2="16.2347" gradientUnits="userSpaceOnUse">
<stop stop-color="#BF6025"/>
<stop offset="1" stop-color="#EE8F54"/>
</linearGradient>
<linearGradient id="paint40_linear_1275_40364" x1="267.531" y1="5.28007" x2="289.134" y2="46.4507" gradientUnits="userSpaceOnUse">
<stop stop-color="#B6561A"/>
<stop offset="1" stop-color="#F09054"/>
</linearGradient>
<linearGradient id="paint41_linear_1275_40364" x1="147.427" y1="40.8666" x2="-38.28" y2="-16.008" gradientUnits="userSpaceOnUse">
<stop stop-color="#DF8E5F"/>
<stop offset="1" stop-color="#FFC6B4"/>
</linearGradient>
<linearGradient id="paint42_linear_1275_40364" x1="88.6849" y1="-16.088" x2="146.973" y2="129.096" gradientUnits="userSpaceOnUse">
<stop stop-color="#DD804A"/>
<stop offset="1" stop-color="#FFB399"/>
</linearGradient>
<linearGradient id="paint43_linear_1275_40364" x1="-23.0373" y1="-105.701" x2="25.4427" y2="111.357" gradientUnits="userSpaceOnUse">
<stop stop-color="#E39061"/>
<stop offset="1" stop-color="#FFB698"/>
</linearGradient>
<linearGradient id="paint44_linear_1275_40364" x1="890" y1="90.5002" x2="-92.5951" y2="71.9973" gradientUnits="userSpaceOnUse">
<stop offset="0.228136" stop-color="white"/>
<stop offset="1" stop-color="white" stop-opacity="0"/>
</linearGradient>
<clipPath id="clip0_1275_40364">
<rect width="800" height="150" fill="white"/>
</clipPath>
</defs>
</svg>
